<mxfile host="app.diagrams.net" modified="2021-04-22T08:04:09.428Z" agent="5.0 (Windows NT 10.0; Win64; x64) AppleWebKit/537.36 (KHTML, like Gecko) Chrome/90.0.4430.72 Safari/537.36 Edg/90.0.818.42" etag="e4buzqgGHofnT9yPmsIw" version="14.6.5" type="github">
  <diagram id="C5RBs43oDa-KdzZeNtuy" name="Page-1">
    <mxGraphModel dx="1438" dy="2580" grid="0" gridSize="10" guides="1" tooltips="1" connect="1" arrows="1" fold="1" page="0" pageScale="1" pageWidth="827" pageHeight="1169" math="0" shadow="0">
      <root>
        <object label="" id="WIyWlLk6GJQsqaUBKTNV-0">
          <mxCell />
        </object>
        <mxCell id="WIyWlLk6GJQsqaUBKTNV-1" parent="WIyWlLk6GJQsqaUBKTNV-0" />
        <mxCell id="xuGArEiv7RM7f1ps3Sem-6" value="教师" style="shape=umlActor;verticalLabelPosition=bottom;verticalAlign=top;html=1;outlineConnect=0;fillColor=#f8cecc;strokeColor=#b85450;fontColor=#305AFF;" vertex="1" parent="WIyWlLk6GJQsqaUBKTNV-1">
          <mxGeometry x="230" y="628" width="83" height="101" as="geometry" />
        </mxCell>
        <mxCell id="xuGArEiv7RM7f1ps3Sem-13" value="管理员" style="shape=umlActor;verticalLabelPosition=bottom;verticalAlign=top;html=1;fillColor=#f8cecc;strokeColor=#b85450;fontStyle=1;fontColor=#305AFF;" vertex="1" parent="WIyWlLk6GJQsqaUBKTNV-1">
          <mxGeometry x="250" y="-270" width="100" height="130" as="geometry" />
        </mxCell>
        <mxCell id="xuGArEiv7RM7f1ps3Sem-14" value="登录系统" style="ellipse;whiteSpace=wrap;html=1;fillColor=#fff2cc;strokeColor=#d6b656;" vertex="1" parent="WIyWlLk6GJQsqaUBKTNV-1">
          <mxGeometry x="190" y="-390" width="100" height="50" as="geometry" />
        </mxCell>
        <mxCell id="xuGArEiv7RM7f1ps3Sem-15" value="个人信息维护" style="ellipse;whiteSpace=wrap;html=1;fillColor=#fff2cc;strokeColor=#d6b656;" vertex="1" parent="WIyWlLk6GJQsqaUBKTNV-1">
          <mxGeometry x="320" y="-390" width="100" height="50" as="geometry" />
        </mxCell>
        <mxCell id="xuGArEiv7RM7f1ps3Sem-16" value="查看学生的测试项成绩" style="ellipse;whiteSpace=wrap;html=1;fillColor=#fff2cc;strokeColor=#d6b656;" vertex="1" parent="WIyWlLk6GJQsqaUBKTNV-1">
          <mxGeometry x="190" y="-60" width="100" height="50" as="geometry" />
        </mxCell>
        <mxCell id="xuGArEiv7RM7f1ps3Sem-17" value="查看学生的考试项成绩" style="ellipse;whiteSpace=wrap;html=1;fillColor=#fff2cc;strokeColor=#d6b656;" vertex="1" parent="WIyWlLk6GJQsqaUBKTNV-1">
          <mxGeometry x="320" y="-60" width="100" height="50" as="geometry" />
        </mxCell>
        <mxCell id="xuGArEiv7RM7f1ps3Sem-18" value="对于学院信息的增删改查" style="ellipse;whiteSpace=wrap;html=1;fillColor=#fff2cc;strokeColor=#d6b656;" vertex="1" parent="WIyWlLk6GJQsqaUBKTNV-1">
          <mxGeometry x="70" y="-330" width="100" height="50" as="geometry" />
        </mxCell>
        <mxCell id="xuGArEiv7RM7f1ps3Sem-19" value="对于专业信息的增删改查" style="ellipse;whiteSpace=wrap;html=1;fillColor=#fff2cc;strokeColor=#d6b656;" vertex="1" parent="WIyWlLk6GJQsqaUBKTNV-1">
          <mxGeometry x="40" y="-230" width="100" height="50" as="geometry" />
        </mxCell>
        <mxCell id="xuGArEiv7RM7f1ps3Sem-20" value="对于教师信息的增删改查" style="ellipse;whiteSpace=wrap;html=1;fillColor=#fff2cc;strokeColor=#d6b656;" vertex="1" parent="WIyWlLk6GJQsqaUBKTNV-1">
          <mxGeometry x="70" y="-140" width="100" height="50" as="geometry" />
        </mxCell>
        <mxCell id="xuGArEiv7RM7f1ps3Sem-21" value="对于班级信息的增删改查" style="ellipse;whiteSpace=wrap;html=1;fillColor=#fff2cc;strokeColor=#d6b656;" vertex="1" parent="WIyWlLk6GJQsqaUBKTNV-1">
          <mxGeometry x="440" y="-330" width="100" height="50" as="geometry" />
        </mxCell>
        <mxCell id="xuGArEiv7RM7f1ps3Sem-22" value="对于学生信息的增删改查" style="ellipse;whiteSpace=wrap;html=1;fillColor=#fff2cc;strokeColor=#d6b656;" vertex="1" parent="WIyWlLk6GJQsqaUBKTNV-1">
          <mxGeometry x="480" y="-230" width="100" height="50" as="geometry" />
        </mxCell>
        <mxCell id="xuGArEiv7RM7f1ps3Sem-23" value="查看学生群体的统计数据" style="ellipse;whiteSpace=wrap;html=1;fillColor=#fff2cc;strokeColor=#d6b656;" vertex="1" parent="WIyWlLk6GJQsqaUBKTNV-1">
          <mxGeometry x="440" y="-140" width="100" height="50" as="geometry" />
        </mxCell>
        <mxCell id="xuGArEiv7RM7f1ps3Sem-24" value="" style="endArrow=classic;html=1;fontColor=#305AFF;entryX=0.5;entryY=1;entryDx=0;entryDy=0;" edge="1" parent="WIyWlLk6GJQsqaUBKTNV-1" target="xuGArEiv7RM7f1ps3Sem-15">
          <mxGeometry width="50" height="50" relative="1" as="geometry">
            <mxPoint x="330" y="-270" as="sourcePoint" />
            <mxPoint x="420" y="-300" as="targetPoint" />
          </mxGeometry>
        </mxCell>
        <mxCell id="xuGArEiv7RM7f1ps3Sem-25" value="" style="endArrow=classic;html=1;fontColor=#305AFF;entryX=0;entryY=1;entryDx=0;entryDy=0;" edge="1" parent="WIyWlLk6GJQsqaUBKTNV-1" target="xuGArEiv7RM7f1ps3Sem-21">
          <mxGeometry width="50" height="50" relative="1" as="geometry">
            <mxPoint x="370" y="-240" as="sourcePoint" />
            <mxPoint x="440" y="-270" as="targetPoint" />
          </mxGeometry>
        </mxCell>
        <mxCell id="xuGArEiv7RM7f1ps3Sem-26" value="" style="endArrow=classic;html=1;fontColor=#305AFF;entryX=0.44;entryY=1.076;entryDx=0;entryDy=0;entryPerimeter=0;" edge="1" parent="WIyWlLk6GJQsqaUBKTNV-1" source="xuGArEiv7RM7f1ps3Sem-13" target="xuGArEiv7RM7f1ps3Sem-14">
          <mxGeometry width="50" height="50" relative="1" as="geometry">
            <mxPoint x="220" y="-240" as="sourcePoint" />
            <mxPoint x="270" y="-290" as="targetPoint" />
          </mxGeometry>
        </mxCell>
        <mxCell id="xuGArEiv7RM7f1ps3Sem-27" value="" style="endArrow=classic;html=1;fontColor=#305AFF;entryX=0;entryY=0.5;entryDx=0;entryDy=0;" edge="1" parent="WIyWlLk6GJQsqaUBKTNV-1" target="xuGArEiv7RM7f1ps3Sem-22">
          <mxGeometry width="50" height="50" relative="1" as="geometry">
            <mxPoint x="376" y="-205" as="sourcePoint" />
            <mxPoint x="440" y="-210" as="targetPoint" />
          </mxGeometry>
        </mxCell>
        <mxCell id="xuGArEiv7RM7f1ps3Sem-28" value="" style="endArrow=classic;html=1;fontColor=#305AFF;entryX=0;entryY=0.5;entryDx=0;entryDy=0;" edge="1" parent="WIyWlLk6GJQsqaUBKTNV-1" target="xuGArEiv7RM7f1ps3Sem-23">
          <mxGeometry width="50" height="50" relative="1" as="geometry">
            <mxPoint x="371" y="-163" as="sourcePoint" />
            <mxPoint x="442" y="-206" as="targetPoint" />
          </mxGeometry>
        </mxCell>
        <mxCell id="xuGArEiv7RM7f1ps3Sem-29" value="" style="endArrow=classic;html=1;fontColor=#305AFF;entryX=0.5;entryY=0;entryDx=0;entryDy=0;" edge="1" parent="WIyWlLk6GJQsqaUBKTNV-1" target="xuGArEiv7RM7f1ps3Sem-17">
          <mxGeometry width="50" height="50" relative="1" as="geometry">
            <mxPoint x="329" y="-134" as="sourcePoint" />
            <mxPoint x="442" y="-206" as="targetPoint" />
          </mxGeometry>
        </mxCell>
        <mxCell id="xuGArEiv7RM7f1ps3Sem-30" value="" style="endArrow=classic;html=1;fontColor=#305AFF;entryX=0.44;entryY=0.012;entryDx=0;entryDy=0;entryPerimeter=0;" edge="1" parent="WIyWlLk6GJQsqaUBKTNV-1" target="xuGArEiv7RM7f1ps3Sem-16">
          <mxGeometry width="50" height="50" relative="1" as="geometry">
            <mxPoint x="265" y="-129" as="sourcePoint" />
            <mxPoint x="442" y="-206" as="targetPoint" />
          </mxGeometry>
        </mxCell>
        <mxCell id="xuGArEiv7RM7f1ps3Sem-31" value="" style="endArrow=classic;html=1;fontColor=#305AFF;entryX=1;entryY=1;entryDx=0;entryDy=0;" edge="1" parent="WIyWlLk6GJQsqaUBKTNV-1" target="xuGArEiv7RM7f1ps3Sem-18">
          <mxGeometry width="50" height="50" relative="1" as="geometry">
            <mxPoint x="240" y="-243" as="sourcePoint" />
            <mxPoint x="442" y="-206" as="targetPoint" />
          </mxGeometry>
        </mxCell>
        <mxCell id="xuGArEiv7RM7f1ps3Sem-32" value="" style="endArrow=classic;html=1;fontColor=#305AFF;entryX=1;entryY=0.5;entryDx=0;entryDy=0;" edge="1" parent="WIyWlLk6GJQsqaUBKTNV-1" target="xuGArEiv7RM7f1ps3Sem-19">
          <mxGeometry width="50" height="50" relative="1" as="geometry">
            <mxPoint x="233" y="-206" as="sourcePoint" />
            <mxPoint x="442" y="-206" as="targetPoint" />
          </mxGeometry>
        </mxCell>
        <mxCell id="xuGArEiv7RM7f1ps3Sem-33" value="" style="endArrow=classic;html=1;fontColor=#305AFF;entryX=1;entryY=0.5;entryDx=0;entryDy=0;" edge="1" parent="WIyWlLk6GJQsqaUBKTNV-1" target="xuGArEiv7RM7f1ps3Sem-20">
          <mxGeometry width="50" height="50" relative="1" as="geometry">
            <mxPoint x="232" y="-166" as="sourcePoint" />
            <mxPoint x="442" y="-206" as="targetPoint" />
          </mxGeometry>
        </mxCell>
        <mxCell id="xuGArEiv7RM7f1ps3Sem-34" value="教师" style="shape=umlActor;verticalLabelPosition=bottom;verticalAlign=top;html=1;outlineConnect=0;fillColor=#f8cecc;strokeColor=#b85450;" vertex="1" parent="WIyWlLk6GJQsqaUBKTNV-1">
          <mxGeometry x="230" y="-680" width="50" height="80" as="geometry" />
        </mxCell>
        <mxCell id="xuGArEiv7RM7f1ps3Sem-35" value="管理员" style="shape=umlActor;verticalLabelPosition=bottom;verticalAlign=top;html=1;outlineConnect=0;fillColor=#f8cecc;strokeColor=#b85450;" vertex="1" parent="WIyWlLk6GJQsqaUBKTNV-1">
          <mxGeometry x="380" y="-920" width="50" height="80" as="geometry" />
        </mxCell>
        <mxCell id="xuGArEiv7RM7f1ps3Sem-36" value="学生" style="shape=umlActor;verticalLabelPosition=bottom;verticalAlign=top;html=1;outlineConnect=0;fillColor=#f8cecc;strokeColor=#b85450;" vertex="1" parent="WIyWlLk6GJQsqaUBKTNV-1">
          <mxGeometry x="550" y="-680" width="50" height="80" as="geometry" />
        </mxCell>
        <mxCell id="xuGArEiv7RM7f1ps3Sem-38" value="学生体质监测管理系统" style="ellipse;whiteSpace=wrap;html=1;fillColor=#dae8fc;strokeColor=#6c8ebf;" vertex="1" parent="WIyWlLk6GJQsqaUBKTNV-1">
          <mxGeometry x="350" y="-760" width="120" height="60" as="geometry" />
        </mxCell>
        <mxCell id="xuGArEiv7RM7f1ps3Sem-39" value="" style="endArrow=classic;html=1;fontColor=#305AFF;entryX=0.5;entryY=1;entryDx=0;entryDy=0;" edge="1" parent="WIyWlLk6GJQsqaUBKTNV-1" target="xuGArEiv7RM7f1ps3Sem-38">
          <mxGeometry width="50" height="50" relative="1" as="geometry">
            <mxPoint x="540" y="-649" as="sourcePoint" />
            <mxPoint x="220" y="-570" as="targetPoint" />
          </mxGeometry>
        </mxCell>
        <mxCell id="xuGArEiv7RM7f1ps3Sem-40" value="" style="endArrow=classic;html=1;fontColor=#305AFF;" edge="1" parent="WIyWlLk6GJQsqaUBKTNV-1">
          <mxGeometry width="50" height="50" relative="1" as="geometry">
            <mxPoint x="290" y="-650" as="sourcePoint" />
            <mxPoint x="410" y="-700" as="targetPoint" />
          </mxGeometry>
        </mxCell>
        <mxCell id="xuGArEiv7RM7f1ps3Sem-41" value="" style="endArrow=classic;html=1;fontColor=#305AFF;entryX=0.5;entryY=0;entryDx=0;entryDy=0;" edge="1" parent="WIyWlLk6GJQsqaUBKTNV-1" target="xuGArEiv7RM7f1ps3Sem-38">
          <mxGeometry width="50" height="50" relative="1" as="geometry">
            <mxPoint x="410" y="-810" as="sourcePoint" />
            <mxPoint x="440" y="-790" as="targetPoint" />
          </mxGeometry>
        </mxCell>
        <mxCell id="xuGArEiv7RM7f1ps3Sem-45" value="查看自己的所属院系信息" style="ellipse;whiteSpace=wrap;html=1;fillColor=#dae8fc;strokeColor=#6c8ebf;" vertex="1" parent="WIyWlLk6GJQsqaUBKTNV-1">
          <mxGeometry x="217.5" y="500" width="108" height="60" as="geometry" />
        </mxCell>
        <mxCell id="xuGArEiv7RM7f1ps3Sem-46" value="登录系统" style="ellipse;whiteSpace=wrap;html=1;fillColor=#dae8fc;strokeColor=#6c8ebf;" vertex="1" parent="WIyWlLk6GJQsqaUBKTNV-1">
          <mxGeometry x="148" y="800" width="108" height="60" as="geometry" />
        </mxCell>
        <mxCell id="xuGArEiv7RM7f1ps3Sem-47" value="维护登录信息" style="ellipse;whiteSpace=wrap;html=1;fillColor=#dae8fc;strokeColor=#6c8ebf;" vertex="1" parent="WIyWlLk6GJQsqaUBKTNV-1">
          <mxGeometry x="300" y="800" width="108" height="60" as="geometry" />
        </mxCell>
        <mxCell id="xuGArEiv7RM7f1ps3Sem-48" value="查看自己管理学生的基本信息" style="ellipse;whiteSpace=wrap;html=1;fillColor=#dae8fc;strokeColor=#6c8ebf;" vertex="1" parent="WIyWlLk6GJQsqaUBKTNV-1">
          <mxGeometry x="50" y="590" width="110" height="60" as="geometry" />
        </mxCell>
        <mxCell id="xuGArEiv7RM7f1ps3Sem-49" value="录入自己管理的学生的各项数据" style="ellipse;whiteSpace=wrap;html=1;fillColor=#dae8fc;strokeColor=#6c8ebf;" vertex="1" parent="WIyWlLk6GJQsqaUBKTNV-1">
          <mxGeometry x="36" y="700" width="108" height="60" as="geometry" />
        </mxCell>
        <mxCell id="xuGArEiv7RM7f1ps3Sem-50" value="查看到学生的数据统计" style="ellipse;whiteSpace=wrap;html=1;fillColor=#dae8fc;strokeColor=#6c8ebf;" vertex="1" parent="WIyWlLk6GJQsqaUBKTNV-1">
          <mxGeometry x="380" y="590" width="108" height="60" as="geometry" />
        </mxCell>
        <mxCell id="xuGArEiv7RM7f1ps3Sem-51" value="查看系统给出的后续建议" style="ellipse;whiteSpace=wrap;html=1;fillColor=#dae8fc;strokeColor=#6c8ebf;" vertex="1" parent="WIyWlLk6GJQsqaUBKTNV-1">
          <mxGeometry x="408" y="700" width="108" height="60" as="geometry" />
        </mxCell>
        <mxCell id="xuGArEiv7RM7f1ps3Sem-52" value="" style="endArrow=classic;html=1;fontColor=#305AFF;entryX=0.5;entryY=1;entryDx=0;entryDy=0;" edge="1" parent="WIyWlLk6GJQsqaUBKTNV-1" target="xuGArEiv7RM7f1ps3Sem-45">
          <mxGeometry width="50" height="50" relative="1" as="geometry">
            <mxPoint x="272" y="610" as="sourcePoint" />
            <mxPoint x="240" y="870" as="targetPoint" />
          </mxGeometry>
        </mxCell>
        <mxCell id="xuGArEiv7RM7f1ps3Sem-53" value="" style="endArrow=classic;html=1;fontColor=#305AFF;strokeColor=#000000;entryX=0.019;entryY=0.63;entryDx=0;entryDy=0;entryPerimeter=0;" edge="1" parent="WIyWlLk6GJQsqaUBKTNV-1" target="xuGArEiv7RM7f1ps3Sem-50">
          <mxGeometry width="50" height="50" relative="1" as="geometry">
            <mxPoint x="330" y="660" as="sourcePoint" />
            <mxPoint x="320" y="730" as="targetPoint" />
          </mxGeometry>
        </mxCell>
        <mxCell id="xuGArEiv7RM7f1ps3Sem-54" value="" style="endArrow=classic;html=1;fontColor=#305AFF;strokeColor=#000000;entryX=0;entryY=0.5;entryDx=0;entryDy=0;" edge="1" parent="WIyWlLk6GJQsqaUBKTNV-1" target="xuGArEiv7RM7f1ps3Sem-51">
          <mxGeometry width="50" height="50" relative="1" as="geometry">
            <mxPoint x="320" y="680" as="sourcePoint" />
            <mxPoint x="440" y="720" as="targetPoint" />
          </mxGeometry>
        </mxCell>
        <mxCell id="xuGArEiv7RM7f1ps3Sem-55" value="" style="endArrow=classic;html=1;fontColor=#305AFF;strokeColor=#000000;entryX=0.5;entryY=0;entryDx=0;entryDy=0;" edge="1" parent="WIyWlLk6GJQsqaUBKTNV-1" target="xuGArEiv7RM7f1ps3Sem-47">
          <mxGeometry width="50" height="50" relative="1" as="geometry">
            <mxPoint x="320" y="700" as="sourcePoint" />
            <mxPoint x="440" y="720" as="targetPoint" />
          </mxGeometry>
        </mxCell>
        <mxCell id="xuGArEiv7RM7f1ps3Sem-56" value="" style="endArrow=classic;html=1;fontColor=#305AFF;strokeColor=#000000;entryX=1;entryY=0.5;entryDx=0;entryDy=0;" edge="1" parent="WIyWlLk6GJQsqaUBKTNV-1" target="xuGArEiv7RM7f1ps3Sem-48">
          <mxGeometry width="50" height="50" relative="1" as="geometry">
            <mxPoint x="220" y="660" as="sourcePoint" />
            <mxPoint x="440" y="720" as="targetPoint" />
          </mxGeometry>
        </mxCell>
        <mxCell id="xuGArEiv7RM7f1ps3Sem-57" value="" style="endArrow=classic;html=1;fontColor=#305AFF;strokeColor=#000000;entryX=1;entryY=0.5;entryDx=0;entryDy=0;" edge="1" parent="WIyWlLk6GJQsqaUBKTNV-1" target="xuGArEiv7RM7f1ps3Sem-49">
          <mxGeometry width="50" height="50" relative="1" as="geometry">
            <mxPoint x="220" y="680" as="sourcePoint" />
            <mxPoint x="440" y="720" as="targetPoint" />
          </mxGeometry>
        </mxCell>
        <mxCell id="xuGArEiv7RM7f1ps3Sem-58" value="" style="endArrow=classic;html=1;fontColor=#305AFF;strokeColor=#000000;entryX=0.5;entryY=0;entryDx=0;entryDy=0;" edge="1" parent="WIyWlLk6GJQsqaUBKTNV-1" target="xuGArEiv7RM7f1ps3Sem-46">
          <mxGeometry width="50" height="50" relative="1" as="geometry">
            <mxPoint x="230" y="700" as="sourcePoint" />
            <mxPoint x="70" y="830" as="targetPoint" />
          </mxGeometry>
        </mxCell>
        <mxCell id="xuGArEiv7RM7f1ps3Sem-59" value="学生&lt;br&gt;" style="shape=umlActor;verticalLabelPosition=bottom;verticalAlign=top;html=1;outlineConnect=0;fillColor=#f8cecc;strokeColor=#b85450;fontColor=#305AFF;" vertex="1" parent="WIyWlLk6GJQsqaUBKTNV-1">
          <mxGeometry x="325" y="1147" width="58" height="98" as="geometry" />
        </mxCell>
        <mxCell id="xuGArEiv7RM7f1ps3Sem-61" value="查看到自己的所属院系及班级信息" style="ellipse;whiteSpace=wrap;html=1;fillColor=#dae8fc;strokeColor=#6c8ebf;" vertex="1" parent="WIyWlLk6GJQsqaUBKTNV-1">
          <mxGeometry x="297" y="1043" width="114" height="54" as="geometry" />
        </mxCell>
        <mxCell id="xuGArEiv7RM7f1ps3Sem-62" value="查看到自己的所属院系及班级信息" style="ellipse;whiteSpace=wrap;html=1;fillColor=#dae8fc;strokeColor=#6c8ebf;" vertex="1" parent="WIyWlLk6GJQsqaUBKTNV-1">
          <mxGeometry x="136" y="1152" width="114" height="54" as="geometry" />
        </mxCell>
        <mxCell id="xuGArEiv7RM7f1ps3Sem-63" value="查看到自己的所属院系及班级信息" style="ellipse;whiteSpace=wrap;html=1;fillColor=#dae8fc;strokeColor=#6c8ebf;" vertex="1" parent="WIyWlLk6GJQsqaUBKTNV-1">
          <mxGeometry x="458" y="1152" width="114" height="54" as="geometry" />
        </mxCell>
        <mxCell id="xuGArEiv7RM7f1ps3Sem-64" value="查看到自己的所属院系及班级信息" style="ellipse;whiteSpace=wrap;html=1;fillColor=#dae8fc;strokeColor=#6c8ebf;" vertex="1" parent="WIyWlLk6GJQsqaUBKTNV-1">
          <mxGeometry x="206" y="1299" width="114" height="54" as="geometry" />
        </mxCell>
        <mxCell id="xuGArEiv7RM7f1ps3Sem-65" value="查看到自己的所属院系及班级信息" style="ellipse;whiteSpace=wrap;html=1;fillColor=#dae8fc;strokeColor=#6c8ebf;" vertex="1" parent="WIyWlLk6GJQsqaUBKTNV-1">
          <mxGeometry x="391" y="1299" width="114" height="54" as="geometry" />
        </mxCell>
        <mxCell id="xuGArEiv7RM7f1ps3Sem-66" value="" style="endArrow=classic;html=1;fontColor=#305AFF;strokeColor=#000000;entryX=0.5;entryY=1;entryDx=0;entryDy=0;" edge="1" parent="WIyWlLk6GJQsqaUBKTNV-1" target="xuGArEiv7RM7f1ps3Sem-61">
          <mxGeometry width="50" height="50" relative="1" as="geometry">
            <mxPoint x="355" y="1138" as="sourcePoint" />
            <mxPoint x="442" y="1178" as="targetPoint" />
          </mxGeometry>
        </mxCell>
        <mxCell id="xuGArEiv7RM7f1ps3Sem-67" value="" style="endArrow=classic;html=1;fontColor=#305AFF;strokeColor=#000000;entryX=0;entryY=0.5;entryDx=0;entryDy=0;" edge="1" parent="WIyWlLk6GJQsqaUBKTNV-1" target="xuGArEiv7RM7f1ps3Sem-63">
          <mxGeometry width="50" height="50" relative="1" as="geometry">
            <mxPoint x="400" y="1178" as="sourcePoint" />
            <mxPoint x="442" y="1178" as="targetPoint" />
          </mxGeometry>
        </mxCell>
        <mxCell id="xuGArEiv7RM7f1ps3Sem-68" value="" style="endArrow=classic;html=1;fontColor=#305AFF;strokeColor=#000000;entryX=1;entryY=0.5;entryDx=0;entryDy=0;" edge="1" parent="WIyWlLk6GJQsqaUBKTNV-1" target="xuGArEiv7RM7f1ps3Sem-62">
          <mxGeometry width="50" height="50" relative="1" as="geometry">
            <mxPoint x="305" y="1179" as="sourcePoint" />
            <mxPoint x="300" y="1173" as="targetPoint" />
          </mxGeometry>
        </mxCell>
        <mxCell id="xuGArEiv7RM7f1ps3Sem-69" value="" style="endArrow=classic;html=1;fontColor=#305AFF;strokeColor=#000000;entryX=0.5;entryY=0;entryDx=0;entryDy=0;" edge="1" parent="WIyWlLk6GJQsqaUBKTNV-1" target="xuGArEiv7RM7f1ps3Sem-64">
          <mxGeometry width="50" height="50" relative="1" as="geometry">
            <mxPoint x="318" y="1257" as="sourcePoint" />
            <mxPoint x="442" y="1178" as="targetPoint" />
          </mxGeometry>
        </mxCell>
        <mxCell id="xuGArEiv7RM7f1ps3Sem-70" value="" style="endArrow=classic;html=1;fontColor=#305AFF;strokeColor=#000000;entryX=0.5;entryY=0;entryDx=0;entryDy=0;" edge="1" parent="WIyWlLk6GJQsqaUBKTNV-1" target="xuGArEiv7RM7f1ps3Sem-65">
          <mxGeometry width="50" height="50" relative="1" as="geometry">
            <mxPoint x="390" y="1255" as="sourcePoint" />
            <mxPoint x="440" y="1211" as="targetPoint" />
          </mxGeometry>
        </mxCell>
        <mxCell id="xuGArEiv7RM7f1ps3Sem-84" value="Table" style="shape=table;html=1;whiteSpace=wrap;startSize=30;container=1;collapsible=0;childLayout=tableLayout;fontStyle=1;align=center;fillColor=#f8cecc;strokeColor=#C3ABD0;" vertex="1" parent="WIyWlLk6GJQsqaUBKTNV-1">
          <mxGeometry x="327" y="1758" width="245" height="150" as="geometry" />
        </mxCell>
        <mxCell id="xuGArEiv7RM7f1ps3Sem-85" value="" style="shape=partialRectangle;html=1;whiteSpace=wrap;collapsible=0;dropTarget=0;pointerEvents=0;fillColor=none;top=0;left=0;bottom=0;right=0;points=[[0,0.5],[1,0.5]];portConstraint=eastwest;" vertex="1" parent="xuGArEiv7RM7f1ps3Sem-84">
          <mxGeometry y="30" width="245" height="40" as="geometry" />
        </mxCell>
        <mxCell id="xuGArEiv7RM7f1ps3Sem-86" value="" style="shape=partialRectangle;html=1;whiteSpace=wrap;connectable=0;fillColor=none;top=0;left=0;bottom=0;right=0;overflow=hidden;" vertex="1" parent="xuGArEiv7RM7f1ps3Sem-85">
          <mxGeometry width="82" height="40" as="geometry" />
        </mxCell>
        <mxCell id="xuGArEiv7RM7f1ps3Sem-87" value="" style="shape=partialRectangle;html=1;whiteSpace=wrap;connectable=0;fillColor=none;top=0;left=0;bottom=0;right=0;overflow=hidden;" vertex="1" parent="xuGArEiv7RM7f1ps3Sem-85">
          <mxGeometry x="82" width="81" height="40" as="geometry" />
        </mxCell>
        <mxCell id="xuGArEiv7RM7f1ps3Sem-88" value="" style="shape=partialRectangle;html=1;whiteSpace=wrap;connectable=0;fillColor=none;top=0;left=0;bottom=0;right=0;overflow=hidden;" vertex="1" parent="xuGArEiv7RM7f1ps3Sem-85">
          <mxGeometry x="163" width="82" height="40" as="geometry" />
        </mxCell>
        <mxCell id="xuGArEiv7RM7f1ps3Sem-89" value="" style="shape=partialRectangle;html=1;whiteSpace=wrap;collapsible=0;dropTarget=0;pointerEvents=0;fillColor=none;top=0;left=0;bottom=0;right=0;points=[[0,0.5],[1,0.5]];portConstraint=eastwest;" vertex="1" parent="xuGArEiv7RM7f1ps3Sem-84">
          <mxGeometry y="70" width="245" height="40" as="geometry" />
        </mxCell>
        <mxCell id="xuGArEiv7RM7f1ps3Sem-90" value="" style="shape=partialRectangle;html=1;whiteSpace=wrap;connectable=0;fillColor=none;top=0;left=0;bottom=0;right=0;overflow=hidden;" vertex="1" parent="xuGArEiv7RM7f1ps3Sem-89">
          <mxGeometry width="82" height="40" as="geometry" />
        </mxCell>
        <mxCell id="xuGArEiv7RM7f1ps3Sem-91" value="" style="shape=partialRectangle;html=1;whiteSpace=wrap;connectable=0;fillColor=none;top=0;left=0;bottom=0;right=0;overflow=hidden;" vertex="1" parent="xuGArEiv7RM7f1ps3Sem-89">
          <mxGeometry x="82" width="81" height="40" as="geometry" />
        </mxCell>
        <mxCell id="xuGArEiv7RM7f1ps3Sem-92" value="" style="shape=partialRectangle;html=1;whiteSpace=wrap;connectable=0;fillColor=none;top=0;left=0;bottom=0;right=0;overflow=hidden;" vertex="1" parent="xuGArEiv7RM7f1ps3Sem-89">
          <mxGeometry x="163" width="82" height="40" as="geometry" />
        </mxCell>
        <mxCell id="xuGArEiv7RM7f1ps3Sem-93" value="" style="shape=partialRectangle;html=1;whiteSpace=wrap;collapsible=0;dropTarget=0;pointerEvents=0;fillColor=none;top=0;left=0;bottom=0;right=0;points=[[0,0.5],[1,0.5]];portConstraint=eastwest;" vertex="1" parent="xuGArEiv7RM7f1ps3Sem-84">
          <mxGeometry y="110" width="245" height="40" as="geometry" />
        </mxCell>
        <mxCell id="xuGArEiv7RM7f1ps3Sem-94" value="" style="shape=partialRectangle;html=1;whiteSpace=wrap;connectable=0;fillColor=none;top=0;left=0;bottom=0;right=0;overflow=hidden;" vertex="1" parent="xuGArEiv7RM7f1ps3Sem-93">
          <mxGeometry width="82" height="40" as="geometry" />
        </mxCell>
        <mxCell id="xuGArEiv7RM7f1ps3Sem-95" value="" style="shape=partialRectangle;html=1;whiteSpace=wrap;connectable=0;fillColor=none;top=0;left=0;bottom=0;right=0;overflow=hidden;" vertex="1" parent="xuGArEiv7RM7f1ps3Sem-93">
          <mxGeometry x="82" width="81" height="40" as="geometry" />
        </mxCell>
        <mxCell id="xuGArEiv7RM7f1ps3Sem-96" value="" style="shape=partialRectangle;html=1;whiteSpace=wrap;connectable=0;fillColor=none;top=0;left=0;bottom=0;right=0;overflow=hidden;" vertex="1" parent="xuGArEiv7RM7f1ps3Sem-93">
          <mxGeometry x="163" width="82" height="40" as="geometry" />
        </mxCell>
        <mxCell id="xuGArEiv7RM7f1ps3Sem-110" value="管理员" style="html=1;strokeColor=#9673a6;fillColor=#e1d5e7;fontStyle=1;fontSize=14;" vertex="1" parent="WIyWlLk6GJQsqaUBKTNV-1">
          <mxGeometry x="98.5" y="-1426" width="98" height="46" as="geometry" />
        </mxCell>
        <mxCell id="xuGArEiv7RM7f1ps3Sem-111" value="账号" style="ellipse;whiteSpace=wrap;html=1;fillColor=#e1d5e7;strokeColor=#9673a6;fontStyle=1;fontSize=15;" vertex="1" parent="WIyWlLk6GJQsqaUBKTNV-1">
          <mxGeometry x="-53" y="-1528" width="113" height="59" as="geometry" />
        </mxCell>
        <mxCell id="xuGArEiv7RM7f1ps3Sem-112" value="账号" style="ellipse;whiteSpace=wrap;html=1;fillColor=#e1d5e7;strokeColor=#9673a6;fontStyle=1;fontSize=15;" vertex="1" parent="WIyWlLk6GJQsqaUBKTNV-1">
          <mxGeometry x="91" y="-1528" width="113" height="59" as="geometry" />
        </mxCell>
        <mxCell id="xuGArEiv7RM7f1ps3Sem-113" value="账号" style="ellipse;whiteSpace=wrap;html=1;fillColor=#e1d5e7;strokeColor=#9673a6;fontStyle=1;fontSize=15;" vertex="1" parent="WIyWlLk6GJQsqaUBKTNV-1">
          <mxGeometry x="223" y="-1528" width="113" height="59" as="geometry" />
        </mxCell>
        <mxCell id="xuGArEiv7RM7f1ps3Sem-116" value="" style="endArrow=none;html=1;fontSize=15;fontColor=#305AFF;strokeColor=#000000;exitX=0.5;exitY=0;exitDx=0;exitDy=0;entryX=0;entryY=1;entryDx=0;entryDy=0;" edge="1" parent="WIyWlLk6GJQsqaUBKTNV-1" source="xuGArEiv7RM7f1ps3Sem-110" target="xuGArEiv7RM7f1ps3Sem-113">
          <mxGeometry width="50" height="50" relative="1" as="geometry">
            <mxPoint x="252" y="-1365" as="sourcePoint" />
            <mxPoint x="302" y="-1415" as="targetPoint" />
          </mxGeometry>
        </mxCell>
        <mxCell id="xuGArEiv7RM7f1ps3Sem-117" value="" style="endArrow=none;html=1;fontSize=15;fontColor=#305AFF;strokeColor=#000000;exitX=0.5;exitY=0;exitDx=0;exitDy=0;entryX=0.5;entryY=1;entryDx=0;entryDy=0;" edge="1" parent="WIyWlLk6GJQsqaUBKTNV-1" source="xuGArEiv7RM7f1ps3Sem-110" target="xuGArEiv7RM7f1ps3Sem-112">
          <mxGeometry width="50" height="50" relative="1" as="geometry">
            <mxPoint x="157.5" y="-1416" as="sourcePoint" />
            <mxPoint x="256.38489452441127" y="-1467.7261060929986" as="targetPoint" />
          </mxGeometry>
        </mxCell>
        <mxCell id="xuGArEiv7RM7f1ps3Sem-119" value="" style="endArrow=none;html=1;fontSize=15;fontColor=#305AFF;strokeColor=#000000;entryX=1;entryY=1;entryDx=0;entryDy=0;" edge="1" parent="WIyWlLk6GJQsqaUBKTNV-1" target="xuGArEiv7RM7f1ps3Sem-111">
          <mxGeometry width="50" height="50" relative="1" as="geometry">
            <mxPoint x="146" y="-1428" as="sourcePoint" />
            <mxPoint x="256.38489452441127" y="-1467.7261060929986" as="targetPoint" />
          </mxGeometry>
        </mxCell>
        <mxCell id="xuGArEiv7RM7f1ps3Sem-120" value="学院" style="html=1;strokeColor=#9673a6;fillColor=#e1d5e7;fontStyle=1;fontSize=14;" vertex="1" parent="WIyWlLk6GJQsqaUBKTNV-1">
          <mxGeometry x="80.5" y="-1686" width="98" height="46" as="geometry" />
        </mxCell>
        <mxCell id="xuGArEiv7RM7f1ps3Sem-121" value="学院编号" style="ellipse;whiteSpace=wrap;html=1;fillColor=#e1d5e7;strokeColor=#9673a6;fontStyle=1;fontSize=15;" vertex="1" parent="WIyWlLk6GJQsqaUBKTNV-1">
          <mxGeometry x="-71" y="-1788" width="113" height="59" as="geometry" />
        </mxCell>
        <mxCell id="xuGArEiv7RM7f1ps3Sem-123" value="学院名称" style="ellipse;whiteSpace=wrap;html=1;fillColor=#e1d5e7;strokeColor=#9673a6;fontStyle=1;fontSize=15;" vertex="1" parent="WIyWlLk6GJQsqaUBKTNV-1">
          <mxGeometry x="205" y="-1788" width="113" height="59" as="geometry" />
        </mxCell>
        <mxCell id="xuGArEiv7RM7f1ps3Sem-124" value="" style="endArrow=none;html=1;fontSize=15;fontColor=#305AFF;strokeColor=#000000;exitX=0.5;exitY=0;exitDx=0;exitDy=0;entryX=0;entryY=1;entryDx=0;entryDy=0;" edge="1" source="xuGArEiv7RM7f1ps3Sem-120" target="xuGArEiv7RM7f1ps3Sem-123" parent="WIyWlLk6GJQsqaUBKTNV-1">
          <mxGeometry width="50" height="50" relative="1" as="geometry">
            <mxPoint x="234" y="-1625" as="sourcePoint" />
            <mxPoint x="284" y="-1675" as="targetPoint" />
          </mxGeometry>
        </mxCell>
        <mxCell id="xuGArEiv7RM7f1ps3Sem-126" value="" style="endArrow=none;html=1;fontSize=15;fontColor=#305AFF;strokeColor=#000000;entryX=1;entryY=1;entryDx=0;entryDy=0;" edge="1" target="xuGArEiv7RM7f1ps3Sem-121" parent="WIyWlLk6GJQsqaUBKTNV-1">
          <mxGeometry width="50" height="50" relative="1" as="geometry">
            <mxPoint x="128" y="-1688" as="sourcePoint" />
            <mxPoint x="238.38489452441127" y="-1727.7261060929986" as="targetPoint" />
          </mxGeometry>
        </mxCell>
        <mxCell id="xuGArEiv7RM7f1ps3Sem-127" value="专业" style="html=1;strokeColor=#9673a6;fillColor=#e1d5e7;fontStyle=1;fontSize=14;" vertex="1" parent="WIyWlLk6GJQsqaUBKTNV-1">
          <mxGeometry x="-236.5" y="-1266" width="98" height="46" as="geometry" />
        </mxCell>
        <mxCell id="xuGArEiv7RM7f1ps3Sem-128" value="账号" style="ellipse;whiteSpace=wrap;html=1;fillColor=#e1d5e7;strokeColor=#9673a6;fontStyle=1;fontSize=15;" vertex="1" parent="WIyWlLk6GJQsqaUBKTNV-1">
          <mxGeometry x="-388" y="-1368" width="113" height="59" as="geometry" />
        </mxCell>
        <mxCell id="xuGArEiv7RM7f1ps3Sem-129" value="账号" style="ellipse;whiteSpace=wrap;html=1;fillColor=#e1d5e7;strokeColor=#9673a6;fontStyle=1;fontSize=15;" vertex="1" parent="WIyWlLk6GJQsqaUBKTNV-1">
          <mxGeometry x="-244" y="-1368" width="113" height="59" as="geometry" />
        </mxCell>
        <mxCell id="xuGArEiv7RM7f1ps3Sem-130" value="账号" style="ellipse;whiteSpace=wrap;html=1;fillColor=#e1d5e7;strokeColor=#9673a6;fontStyle=1;fontSize=15;" vertex="1" parent="WIyWlLk6GJQsqaUBKTNV-1">
          <mxGeometry x="-112" y="-1368" width="113" height="59" as="geometry" />
        </mxCell>
        <mxCell id="xuGArEiv7RM7f1ps3Sem-131" value="" style="endArrow=none;html=1;fontSize=15;fontColor=#305AFF;strokeColor=#000000;exitX=0.5;exitY=0;exitDx=0;exitDy=0;entryX=0;entryY=1;entryDx=0;entryDy=0;" edge="1" source="xuGArEiv7RM7f1ps3Sem-127" target="xuGArEiv7RM7f1ps3Sem-130" parent="WIyWlLk6GJQsqaUBKTNV-1">
          <mxGeometry width="50" height="50" relative="1" as="geometry">
            <mxPoint x="-83" y="-1205" as="sourcePoint" />
            <mxPoint x="-33" y="-1255" as="targetPoint" />
          </mxGeometry>
        </mxCell>
        <mxCell id="xuGArEiv7RM7f1ps3Sem-132" value="" style="endArrow=none;html=1;fontSize=15;fontColor=#305AFF;strokeColor=#000000;exitX=0.5;exitY=0;exitDx=0;exitDy=0;entryX=0.5;entryY=1;entryDx=0;entryDy=0;" edge="1" source="xuGArEiv7RM7f1ps3Sem-127" target="xuGArEiv7RM7f1ps3Sem-129" parent="WIyWlLk6GJQsqaUBKTNV-1">
          <mxGeometry width="50" height="50" relative="1" as="geometry">
            <mxPoint x="-177.5" y="-1256" as="sourcePoint" />
            <mxPoint x="-78.61510547558873" y="-1307.7261060929986" as="targetPoint" />
          </mxGeometry>
        </mxCell>
        <mxCell id="xuGArEiv7RM7f1ps3Sem-133" value="" style="endArrow=none;html=1;fontSize=15;fontColor=#305AFF;strokeColor=#000000;entryX=1;entryY=1;entryDx=0;entryDy=0;" edge="1" target="xuGArEiv7RM7f1ps3Sem-128" parent="WIyWlLk6GJQsqaUBKTNV-1">
          <mxGeometry width="50" height="50" relative="1" as="geometry">
            <mxPoint x="-189" y="-1268" as="sourcePoint" />
            <mxPoint x="-78.61510547558873" y="-1307.7261060929986" as="targetPoint" />
          </mxGeometry>
        </mxCell>
      </root>
    </mxGraphModel>
  </diagram>
</mxfile>
